# Rhino

mtllib adingo_floor.mtl
usemtl diffuse_0
v 3.8499999046325684 0.20000000298023224 -8.8000001907348633
v 3.8499999046325684 0.15000000596046448 -8.8000001907348633
v 3.8499999046325684 0.20000000298023224 -7.9499998092651367
v 3.8499999046325684 0.15000000596046448 -7.9499998092651367
v 3.8499999046325684 0.20000000298023224 -7.9499998092651367
v 3.8499999046325684 0.15000000596046448 -7.9499998092651367
v 7 0.20000000298023224 -7.9499998092651367
v 7 0.15000000596046448 -7.9499998092651367
v 7 0.20000000298023224 -7.9499998092651367
v 7 0.15000000596046448 -7.9499998092651367
v 7 0.20000000298023224 0
v 7 0.15000000596046448 0
v 7 0.20000000298023224 0
v 7 0.15000000596046448 0
v 0 0.20000000298023224 0
v 0 0.15000000596046448 0
v 0 0.20000000298023224 0
v 0 0.15000000596046448 0
v 0 0.20000000298023224 -8.8000001907348633
v 0 0.15000000596046448 -8.8000001907348633
v 0 0.20000000298023224 -8.8000001907348633
v 0 0.15000000596046448 -8.8000001907348633
v 3.8499999046325684 0.20000000298023224 -8.8000001907348633
v 3.8499999046325684 0.15000000596046448 -8.8000001907348633
v 3.8499999046325684 0.20000000298023224 -8.8000001907348633
v 3.8499999046325684 0.20000000298023224 -7.9499998092651367
v 7 0.20000000298023224 -7.9499998092651367
v 7 0.20000000298023224 0
v 0 0.20000000298023224 0
v 0 0.20000000298023224 -8.8000001907348633
v 3.8499999046325684 0.15000000596046448 -8.8000001907348633
v 3.8499999046325684 0.15000000596046448 -7.9499998092651367
v 7 0.15000000596046448 -7.9499998092651367
v 7 0.15000000596046448 0
v 0 0.15000000596046448 0
v 0 0.15000000596046448 -8.8000001907348633
vt 0 0
vt 0 0.50177907943725586
vt 0.026898734271526337 0
vt 0.026898734271526337 0.50177907943725586
vt 0.026898734271526337 0
vt 0.026898734271526337 0.50177907943725586
vt 0.12658227980136871 0
vt 0.12658227980136871 0.50177907943725586
vt 0.12658227980136871 0
vt 0.12658227980136871 0.50177907943725586
vt 0.37816455960273743 0
vt 0.37816455960273743 0.50177907943725586
vt 0.37816455960273743 0
vt 0.37816455960273743 0.50177907943725586
vt 0.59968352317810059 0
vt 0.59968352317810059 0.50177907943725586
vt 0.59968352317810059 0
vt 0.59968352317810059 0.50177907943725586
vt 0.87816452980041504 0
vt 0.87816452980041504 0.50177907943725586
vt 0.87816452980041504 0
vt 0.87816452980041504 0.50177907943725586
vt 1 0
vt 1 0.50177907943725586
vt 0 0.77580082416534424
vt 0.026898734271526337 0.77580082416534424
vt 0.026898734271526337 1
vt 0.27848100662231445 1
vt 0.27848100662231445 0.50177961587905884
vt 0 0.50177961587905884
vt 0 0.7259787917137146
vt 0.026898734271526337 0.7259787917137146
vt 0.026898734271526337 0.50177961587905884
vt 0.27848100662231445 0.50177961587905884
vt 0.27848100662231445 1
vt 0 1
vn 1 0 0
vn 1 0 0
vn 1 0 0
vn 1 0 0
vn 0 0 -1
vn 0 0 -1
vn 0 0 -1
vn 0 0 -1
vn 1 0 0
vn 1 0 0
vn 1 0 0
vn 1 0 0
vn 0 0 1
vn 0 0 1
vn 0 0 1
vn 0 0 1
vn -1 0 0
vn -1 0 0
vn -1 0 0
vn -1 0 0
vn 0 0 -1
vn 0 0 -1
vn 0 0 -1
vn 0 0 -1
vn 0 1 0
vn 0 1 0
vn 0 1 0
vn 0 1 0
vn 0 1 0
vn 0 1 0
vn 0 -1 0
vn 0 -1 0
vn 0 -1 0
vn 0 -1 0
vn 0 -1 0
vn 0 -1 0
f 1/1/1 3/3/3 4/4/4 2/2/2
f 5/5/5 7/7/7 8/8/8 6/6/6
f 9/9/9 11/11/11 12/12/12 10/10/10
f 13/13/13 15/15/15 16/16/16 14/14/14
f 17/17/17 19/19/19 20/20/20 18/18/18
f 21/21/21 23/23/23 24/24/24 22/22/22
f 27/27/27 26/26/26 28/28/28
f 29/29/29 28/28/28 26/26/26
f 25/25/25 30/30/30 26/26/26
f 29/29/29 26/26/26 30/30/30
f 33/33/33 34/34/34 32/32/32
f 35/35/35 32/32/32 34/34/34
f 31/31/31 32/32/32 36/36/36
f 35/35/35 36/36/36 32/32/32
